<svg viewBox="0 0 500 300" xmlns="http://www.w3.org/2000/svg" xmlns:xlink="http://www.w3.org/1999/xlink" xmlns:bx="https://boxy-svg.com">
  <defs>
    <filter id="drop-shadow-filter-0" color-interpolation-filters="sRGB" x="-500%" y="-500%" width="1000%" height="1000%" bx:preset="drop-shadow 1 10 10 10 0.2 rgba(0,0,0,0.3)">
      <feGaussianBlur in="SourceAlpha" stdDeviation="10"></feGaussianBlur>
      <feOffset dx="10" dy="10"></feOffset>
      <feComponentTransfer result="offsetblur">
        <feFuncA id="spread-ctrl" type="linear" slope="0.4"></feFuncA>
      </feComponentTransfer>
      <feFlood flood-color="rgba(0,0,0,0.3)"></feFlood>
      <feComposite in2="offsetblur" operator="in"></feComposite>
      <feMerge>
        <feMergeNode></feMergeNode>
        <feMergeNode in="SourceGraphic"></feMergeNode>
      </feMerge>
    </filter>
    <linearGradient id="color-1">
      <stop style="stop-color: rgb(195, 20, 40);" offset="0"></stop>
      <stop style="stop-color: rgb(131, 0, 0);" offset="1"></stop>
    </linearGradient>
    <linearGradient id="color-1-0" gradientUnits="userSpaceOnUse" x1="300.082" y1="155.34" x2="300.082" y2="341.41" gradientTransform="matrix(1, 0, 0, 1, 0, -7.779166)" xlink:href="#color-1"></linearGradient>
  </defs>
  <g style="" transform="matrix(1.414034, 0, 0, 1.414034, -173.501801, -203.3078)">
    <path d="M 344.034 240.598 C 344.034 272.559 331.584 301.612 311.268 323.172 C 323.601 294.744 325.626 260.857 314.416 229.394 C 306.291 207.587 292.506 189.056 275.474 175.111 C 282.226 164.71 290.539 155.417 300.082 147.563 C 326.92 169.651 344.034 203.126 344.034 240.598 Z M 364.363 159.529 C 382.026 189.466 386.656 226.775 373.837 261.987 C 369.366 274.268 363.106 285.38 355.457 295.135 C 339.309 300.529 324.684 309.251 312.396 320.487 C 323.714 292.625 325.275 259.872 314.416 229.394 C 311.495 221.555 307.843 214.139 303.572 207.208 C 318.258 184.697 339.843 168.188 364.363 159.529 Z M 309.432 231.188 C 321.037 263.064 318.342 296.661 304.622 324.95 L 304.653 322.476 C 305.06 289.96 292.535 256.308 267.853 231.281 C 254.228 217.858 238.073 208.057 220.91 201.968 C 223.246 186.685 228.505 172.025 236.306 158.802 C 269.081 170.376 296.614 195.977 309.432 231.188 Z M 166.932 200.732 C 201.528 197.376 237.298 208.947 263.794 235.445 C 287.865 259.518 302.379 297.989 301.808 329.536 C 292.022 311.748 264.209 262.678 236.566 249.786 C 215.036 239.745 191.657 236.488 169.312 239.001 C 166.484 226.435 165.691 213.503 166.932 200.732 Z M 334.33 236.445 C 360.826 209.947 396.596 198.376 431.192 201.732 C 434.188 232.564 425.328 264.33 404.611 289.634 C 400.801 289.271 396.94 289.085 393.035 289.085 C 362.145 289.087 333.973 300.718 312.657 319.84 C 320.874 299.283 323.797 276.108 320.365 253.17 C 324.436 247.286 329.091 241.684 334.33 236.445 Z M 364.679 256.006 C 398.639 240.168 436.21 241.529 467.572 256.516 C 463.263 273.239 455.391 288.974 444.397 302.518 C 428.836 295.184 411.451 291.085 393.109 291.085 C 361.508 291.087 332.75 303.261 311.268 323.174 C 313.814 317.304 315.921 311.202 317.563 304.936 C 329.602 286.319 346.631 264.424 364.679 256.006 Z M 298.926 333.312 C 298.633 333.668 268.284 270.112 234.324 254.274 C 200.364 238.436 162.793 239.797 131.431 254.784 C 135.74 271.507 143.612 287.242 154.606 300.786 C 170.167 293.452 187.552 289.353 205.894 289.353 C 243.366 289.355 276.839 306.472 298.926 333.312 Z M 298.926 333.786 C 298.633 334.142 268.284 270.586 234.324 254.748 C 200.364 238.91 162.793 240.271 131.431 255.258 C 135.74 271.981 143.612 287.716 154.606 301.26 C 170.167 293.926 187.552 289.827 205.894 289.827 C 243.366 289.829 276.839 306.946 298.926 333.786 Z M 298.926 333.631 C 298.633 333.987 268.284 270.431 234.324 254.593 C 200.364 238.755 162.793 240.116 131.431 255.103 C 135.74 271.826 143.612 287.561 154.606 301.105 C 170.167 293.771 187.552 289.672 205.894 289.672 C 243.366 289.674 276.839 306.791 298.926 333.631 Z M 167.24 200.318 C 201.836 196.962 237.606 208.533 264.102 235.031 C 288.173 259.104 299.921 290.833 299.35 322.38 C 289.564 304.592 264.517 262.264 236.874 249.372 C 215.344 239.331 191.965 236.074 169.62 238.587 C 166.792 226.021 165.999 213.089 167.24 200.318 Z M 277.759 306.601 C 257.345 292.578 244.831 284.246 206.202 283.954 C 200.945 283.974 195.947 284.272 191.146 284.83 C 182.61 273.609 176.308 261.232 172.237 248.304 C 191.676 246.216 211.884 249.423 232.39 258.986 C 263.935 273.698 266.098 288.402 277.759 306.601 Z" style="paint-order: fill; filter: url(#drop-shadow-filter-0); fill: url(#color-1-0);"></path>
  </g>
</svg>