<svg width="0" height="0" class="hidden">
  <symbol xmlns="http://www.w3.org/2000/svg" viewBox="0 0 48 48" id="arrowF">
    <path d="M23.25 38.3q-.35-.3-.325-.775.025-.475.325-.775L34.9 25.1H10q-.5 0-.8-.3-.3-.3-.3-.8t.3-.8q.3-.3.8-.3h24.9L23.25 11.25q-.3-.3-.325-.775-.025-.475.325-.825.3-.3.75-.3t.8.3L38.15 23q.2.2.325.45t.125.55q0 .25-.125.5t-.325.5L24.8 38.35q-.35.3-.8.275-.45-.025-.75-.325Z"></path>
  </symbol>
  <symbol xmlns="http://www.w3.org/2000/svg" viewBox="0 0 48 48" id="noon">
    <path d="M34.25 29.15q-.45-.15-.6-.6-.15-.45.05-.85.3-.9.5-1.875t.2-2.175q0-4-2.975-7.05t-7.175-3.05q-.95 0-2 .175t-2.05.575q-.45.2-.825.025-.375-.175-.575-.675-.2-.4.025-.825.225-.425.625-.625 1.2-.5 2.4-.675 1.2-.175 2.5-.175 5.1 0 8.675 3.625Q36.6 18.6 36.6 23.65q0 1.5-.175 2.6t-.575 2.25q-.2.45-.7.625-.5.175-.9.025ZM24 36.65q-5.25 0-8.95-3.7-3.7-3.7-3.7-8.95 0-1.85.55-3.725t1.75-3.575q.1-.15.35-.3.25-.15.55-.15.3 0 .575.175.275.175.425.425 2.7 4.9 6.75 8.875 4.05 3.975 8.95 6.675.25.15.425.375t.175.525q-.05.3-.175.55-.125.25-.325.4-1.7 1.2-3.55 1.8-1.85.6-3.8.6Zm0-2.2q1.3 0 2.525-.3 1.225-.3 2.075-.7-4.25-2.6-7.85-6.175-3.6-3.575-6.2-7.775-.45 1-.725 2.25Q13.55 23 13.55 24q0 4.5 3.1 7.45t7.35 3Zm-2.9-7.5ZM24 5.05q-.45 0-.775-.325T22.9 3.95v-2.3q0-.5.325-.825Q23.55.5 24 .5q.5 0 .8.325.3.325.3.825v2.3q0 .45-.3.775t-.8.325Zm0 42.4q-.45 0-.775-.325t-.325-.775v-2.3q0-.5.325-.825.325-.325.775-.325.5 0 .8.325.3.325.3.825v2.3q0 .45-.3.775t-.8.325ZM37.25 10.7q-.3-.3-.3-.775 0-.475.3-.825l1.6-1.6q.4-.35.875-.35t.775.35q.35.3.325.775-.025.475-.375.825l-1.6 1.6q-.35.3-.825.3t-.775-.3ZM7.55 40.45q-.35-.3-.35-.775 0-.475.35-.825l1.6-1.6q.35-.35.775-.325.425.025.775.325.3.3.325.775.025.475-.275.825l-1.6 1.6q-.35.35-.825.35t-.775-.35Zm36.5-15.35q-.45 0-.775-.325T42.95 24q0-.5.325-.8.325-.3.775-.3h2.3q.5 0 .825.3.325.3.325.8 0 .45-.325.775t-.825.325ZM2 25.1q-.45 0-.775-.325T.9 24q0-.5.325-.8.325-.3.775-.3h2.35q.45 0 .775.3t.325.8q0 .45-.325.775t-.775.325Zm36.85 15.35-1.6-1.6q-.35-.35-.3-.775.05-.425.3-.775.35-.25.8-.3.45-.05.8.25l1.6 1.6q.3.35.3.8 0 .45-.3.75-.3.35-.775.35-.475 0-.825-.3ZM9.15 10.7l-1.6-1.6q-.35-.35-.325-.775.025-.425.325-.775.3-.3.775-.325.475-.025.825.275l1.6 1.6q.3.35.3.825t-.3.775q-.3.3-.775.3-.475 0-.825-.3Z"></path>
  </symbol>
  <symbol xmlns="http://www.w3.org/2000/svg" viewBox="0 0 48 48" id="morning">
    <path d="M24 10q-.5 0-.8-.3-.3-.3-.3-.8V4.15q0-.45.325-.775T24 3.05q.5 0 .8.325.3.325.3.775V8.9q0 .5-.325.8-.325.3-.775.3Zm9.9 4.1q-.35-.3-.35-.775 0-.475.35-.775l3.3-3.35q.35-.3.8-.3.45 0 .8.3.3.35.3.775 0 .425-.3.775l-3.4 3.35q-.3.35-.75.35t-.75-.35Zm5.2 11q-.5 0-.8-.325Q38 24.45 38 24q0-.5.3-.8.3-.3.8-.3h4.75q.45 0 .775.325t.325.775q0 .5-.325.8-.325.3-.775.3Zm-1.85 13.7-3.35-3.35q-.3-.3-.3-.775 0-.475.3-.775.35-.35.825-.35t.775.35l3.3 3.3q.35.35.35.8 0 .45-.35.8-.3.3-.775.3-.475 0-.775-.3ZM12.6 14.15l-3.4-3.4q-.3-.35-.3-.8 0-.45.3-.75.35-.3.775-.3.425 0 .775.3l3.35 3.4q.35.3.35.75t-.3.8q-.35.3-.775.3-.425 0-.775-.3Zm0 24.7h8.6q1.75 0 3-1.225t1.25-3.025q0-1.75-1.2-3t-3-1.25H19.3l-.75-1.8q-.85-1.85-2.5-2.95t-3.65-1.1q-2.95 0-5 2.075T5.35 31.6q0 3.05 2.1 5.15 2.1 2.1 5.15 2.1Zm0 2.2q-3.95 0-6.7-2.75t-2.75-6.7q0-3.85 2.7-6.55 2.7-2.7 6.55-2.7 2.75 0 5.025 1.6 2.275 1.6 3.325 4.2 2.8 0 4.8 1.825t2 4.775q-.15 2.65-1.95 4.475-1.8 1.825-4.4 1.825Zm14.95-6.65q-.1-.6-.225-1.1-.125-.5-.225-1.1 2.55-.95 4.125-3.2 1.575-2.25 1.575-5 0-3.65-2.575-6.225Q27.65 15.2 24 15.2q-3.35 0-5.825 2.2t-2.825 5.45q-.6-.1-1.175-.2-.575-.1-1.175-.25.6-4.05 3.75-6.725T24 13q4.55 0 7.775 3.225Q35 19.45 35 24.05q0 3.5-2.075 6.325T27.55 34.4ZM24.05 24Z"></path>
  </symbol>
  <symbol xmlns="http://www.w3.org/2000/svg" viewBox="0 0 48 48" id="night">
    <path d="M25.75 26.15Zm.45 18.8h-5.8l.35-.35q.35-.35.8-.75.45-.4.825-.725l.375-.325H26q4.8.05 8.95-2.7 4.15-2.75 6.55-7-4.45-.4-8.525-2.1-4.075-1.7-7.225-4.85-3.15-3.1-4.85-7.175-1.7-4.075-2.05-8.425-4.25 2.3-6.925 6.35T9.25 25.8q0 .5.025 1.025.025.525.125 1.025l-.35.125q-.35.125-.725.25t-.7.225l-.325.1q-.15-.7-.2-1.375-.05-.675-.05-1.375 0-6.55 3.975-11.65Q15 9.05 21.35 7.4q-.55 4.8 1 9.325 1.55 4.525 4.95 7.925 3.45 3.45 7.975 5 4.525 1.55 9.325 1Q43 37 37.875 40.975 32.75 44.95 26.2 44.95ZM12 42.75h9q1.6 0 2.7-1.1T24.8 39q0-1.55-1.075-2.675Q22.65 35.2 21.1 35.2H19l-.8-1.85q-.8-1.9-2.5-3.025T12 29.2q-2.75 0-4.75 2t-2 4.8q0 2.8 1.975 4.775Q9.2 42.75 12 42.75Zm0 2.2q-3.7-.05-6.325-2.65T3.05 36q0-3.75 2.625-6.375T12 27q2.7 0 4.925 1.475 2.225 1.475 3.325 3.975l.25.55h.6q2.4.1 4.15 1.825Q27 36.55 27 39q0 2.5-1.75 4.225Q23.5 44.95 21 44.95Z"></path>
  </symbol>
  <symbol xmlns="http://www.w3.org/2000/svg" viewBox="0 0 48 48" id="menu">
    <path d="M7.85 40.4q-.35-.35-.35-.775 0-.425.35-.775L27.75 19q-1.1-2.45-.55-4.85.55-2.4 2.7-4.6 1.95-1.95 5-2.675 3.05-.725 5.05 1.275t1.225 5.025Q40.4 16.2 38.4 18.25q-2 2.05-4.4 2.65-2.4.6-4.7-.4l-3.7 3.7 14.65 14.65q.3.35.3.775 0 .425-.3.775-.3.35-.775.35-.475 0-.775-.35L24.05 25.8 9.4 40.4q-.3.35-.775.35-.475 0-.775-.35Zm7.05-16.45-5.7-5.7Q7.1 16.2 6.75 13.5q-.35-2.7.95-5.15.35-.55.975-.6.625-.05 1.125.4L20.25 18.6Z"></path>
  </symbol>
  <symbol xmlns="http://www.w3.org/2000/svg" viewBox="0 0 48 48" id="info">
    <path d="M24.1 33.4q.5 0 .8-.3.3-.3.3-.8v-9.25q0-.4-.325-.725Q24.55 22 24.15 22q-.5 0-.825.325Q23 22.65 23 23.1v9.25q0 .45.35.75t.75.3ZM24 18.85q.55 0 .95-.35.4-.35.4-.95t-.4-.975q-.4-.375-.95-.375-.6 0-.975.375t-.375.975q0 .6.4.95t.95.35Zm0 24q-4 0-7.425-1.45t-5.975-4q-2.55-2.55-4-5.975Q5.15 28 5.15 24q0-3.95 1.45-7.4t4-6q2.55-2.55 5.975-4Q20 5.15 24 5.15q3.95 0 7.4 1.45t6 4q2.55 2.55 4 5.975Q42.85 20 42.85 24t-1.45 7.425q-1.45 3.425-4 5.975t-5.975 4Q28 42.85 24 42.85ZM24 24Zm0 16.65q6.85 0 11.75-4.875T40.65 24q0-6.85-4.9-11.75T24 7.35q-6.9 0-11.775 4.9T7.35 24q0 6.9 4.875 11.775T24 40.65Z"></path>
  </symbol>
  <symbol xmlns="http://www.w3.org/2000/svg" viewBox="0 0 48 48" id="person">
    <path d="M24 23.35q-2.85 0-4.7-1.825T17.45 16.8q0-2.9 1.85-4.725 1.85-1.825 4.7-1.825t4.7 1.825q1.85 1.825 1.85 4.725 0 2.9-1.85 4.725-1.85 1.825-4.7 1.825ZM36.65 38.4h-25.3q-.9 0-1.55-.65t-.65-1.55v-1.5q0-1.6.85-2.775.85-1.175 2.2-1.825 3.15-1.35 6.025-2.075Q21.1 27.3 24 27.3q2.9 0 5.775.725 2.875.725 6.025 2.125 1.4.6 2.225 1.775.825 1.175.825 2.775v1.5q0 .9-.65 1.55t-1.55.65Zm-25.3-2.2h25.3v-1.5q0-.8-.5-1.5t-1.25-1.15q-2.95-1.4-5.55-1.975-2.6-.575-5.35-.575-2.75 0-5.375.575T13.1 32.05q-.8.45-1.275 1.175-.475.725-.475 1.475ZM24 21.2q1.85 0 3.1-1.25t1.25-3.15q0-1.85-1.25-3.1T24 12.45q-1.85 0-3.1 1.25t-1.25 3.1q0 1.9 1.25 3.15T24 21.2Zm0-4.4Zm0 19.4Z"></path>
  </symbol>
  <symbol xmlns="http://www.w3.org/2000/svg" viewBox="0 0 48 48" id="location-pin">
    <path d="M24 33.75q5.4-4.3 8.15-8.275Q34.9 21.5 34.9 17.95q0-3.1-1.125-5.225-1.125-2.125-2.75-3.45-1.625-1.325-3.55-1.95Q25.55 6.7 24 6.7t-3.475.625q-1.925.625-3.55 1.95-1.625 1.325-2.75 3.45T13.1 17.95q0 3.55 2.75 7.525Q18.6 29.45 24 33.75Zm0 2.3q-.3 0-.575-.075-.275-.075-.525-.275-6.1-4.8-9.05-9.15-2.95-4.35-2.95-8.6 0-3.3 1.175-5.825 1.175-2.525 3.05-4.2Q17 6.25 19.35 5.375 21.7 4.5 24 4.5q2.25 0 4.625.875t4.25 2.55q1.875 1.675 3.05 4.2Q37.1 14.65 37.1 17.95q0 4.25-2.95 8.625T25.1 35.7q-.2.2-.525.275-.325.075-.575.075Zm0-15.35q1.3 0 2.2-.9.9-.9.9-2.2 0-1.25-.9-2.175-.9-.925-2.2-.925-1.3 0-2.2.925-.9.925-.9 2.225 0 1.25.925 2.15.925.9 2.175.9ZM12 43.45q-.5 0-.8-.3-.3-.3-.3-.8t.3-.8q.3-.3.8-.3h24q.5 0 .8.325.3.325.3.825 0 .45-.3.75t-.8.3Zm12-25.5Z"></path>
  </symbol>
  <symbol xmlns="http://www.w3.org/2000/svg" viewBox="0 0 48 48" id="event">
    <path d="M30 36.65q-1.9 0-3.175-1.275T25.55 32.2q0-1.9 1.275-3.175T30 27.75q1.9 0 3.175 1.3t1.275 3.15q0 1.9-1.275 3.175T30 36.65Zm-20.05 6.2q-1.15 0-1.975-.85-.825-.85-.825-1.95V11.2q0-1.15.825-1.975Q8.8 8.4 9.95 8.4h3.75V6.1q0-.5.35-.85t.85-.35q.55 0 .9.35t.35.85v2.3H31.9V6.05q0-.5.35-.825.35-.325.85-.325t.85.35q.35.35.35.8V8.4h3.75q1.15 0 1.975.825.825.825.825 1.975v28.85q0 1.1-.825 1.95-.825.85-1.975.85Zm0-2.2h28.1q.25 0 .425-.175t.175-.425V20.3H9.35v19.75q0 .25.175.425t.425.175Zm-.6-22.55h29.3v-6.9q0-.25-.175-.425t-.425-.175H9.95q-.25 0-.425.175t-.175.425Zm0 0v-7.5 7.5Z"></path>
  </symbol>
  <symbol xmlns="http://www.w3.org/2000/svg" viewBox="0 0 48 48" id="call">
    <path d="M26.5 21.05q-.35.3-.8.125-.45-.175-.45-.675V8.7q0-.65.525-1.075Q26.3 7.2 27 7.2h12.1q.7 0 1.2.425t.5 1.075v7.7q0 .75-.475 1.25t-1.225.5h-9.55Zm.95-11.65v6.55Zm0 6.55h11.2V9.4h-11.2Zm11.15 24.8q-5.5 0-11.1-2.85t-10.1-7.35q-4.5-4.5-7.35-10.1-2.85-5.6-2.85-11.1 0-.95.625-1.575T9.35 7.15H15q.75 0 1.3.475t.75 1.325l1.2 5.3q.1.7-.075 1.325t-.575.975l-4.7 4.6q2.9 4.8 6.4 8.225 3.5 3.425 8.05 5.975l4.55-4.7q.5-.5 1.075-.725.575-.225 1.225-.075L39 30.9q.8.2 1.3.8.5.6.5 1.45v5.4q0 .95-.625 1.575t-1.575.625Zm-26.8-21.6 4.15-4q.05-.05.075-.2.025-.15.025-.25l-1.1-5.05q0-.15-.125-.225-.125-.075-.275-.075H9.6q-.1 0-.175.075-.075.075-.075.175-.05 1.95.575 4.325T11.8 19.15Zm26.55 19.4q.15 0 .225-.075.075-.075.075-.175v-4.9q0-.15-.075-.275Q38.5 33 38.3 33l-4.5-.9q-.1-.05-.175-.025-.075.025-.175.125l-4.05 4.2q2.05 1 4.5 1.55t4.45.6ZM29.4 36.4ZM11.8 19.15Z"></path>
  </symbol>
  <symbol xmlns="http://www.w3.org/2000/svg" viewBox="0 0 48 48" id="basket">
    <path d="M10.45 40.85q-.65 0-1.2-.4-.55-.4-.7-1.05L3.3 20.75q-.2-.65.225-1.15.425-.5 1.125-.5h9.95l8.45-12.55q.2-.25.425-.375.225-.125.525-.125.25 0 .5.125t.4.325l8.45 12.6H43.4q.65 0 1.075.525.425.525.275 1.125L39.4 39.4q-.15.65-.75 1.05t-1.25.4Zm.1-2.2h26.9L42.3 21.3H5.7ZM24 32.15q.9 0 1.55-.625t.65-1.575q0-.9-.65-1.525Q24.9 27.8 24 27.8t-1.55.625q-.65.625-.65 1.525 0 .95.65 1.575t1.55.625ZM17.3 19.1h13.35L24 9.1Zm-6.75 19.55h26.9Z"></path>
  </symbol>
  <symbol xmlns="http://www.w3.org/2000/svg" viewBox="0 0 48 48" id="email">
    <path d="M24 42.85q-3.95 0-7.375-1.475T10.65 37.35Q8.1 34.8 6.625 31.375 5.15 27.95 5.15 24t1.475-7.375Q8.1 13.2 10.65 10.65q2.55-2.55 5.975-4.025Q20.05 5.15 24 5.15t7.375 1.475Q34.8 8.1 37.35 10.65q2.55 2.55 4.025 6Q42.85 20.1 42.85 24v2.2q0 2.65-1.825 4.425T36.55 32.4q-1.9 0-3.375-.95T31 28.8q-1.2 1.7-2.95 2.65-1.75.95-4.05.95-3.5 0-5.95-2.45T15.6 24q0-3.55 2.45-6T24 15.55q3.5 0 5.95 2.45t2.45 6v2.2q0 1.65 1.2 2.825 1.2 1.175 2.95 1.175 1.7 0 2.9-1.175t1.2-2.825V24q0-6.9-4.875-11.775T24 7.35q-6.9 0-11.775 4.875T7.35 24q0 6.9 4.875 11.775T24 40.65h9.4q.45 0 .75.325t.3.775q0 .45-.3.775t-.75.325Zm0-12.65q2.6 0 4.4-1.8 1.8-1.8 1.8-4.4 0-2.65-1.8-4.45-1.8-1.8-4.4-1.8-2.6 0-4.4 1.8-1.8 1.8-1.8 4.45 0 2.6 1.8 4.4 1.8 1.8 4.4 1.8Z"></path>
  </symbol>
  <symbol xmlns="http://www.w3.org/2000/svg" fill="none" stroke="currentColor" stroke-width="1" stroke-linecap="round" stroke-linejoin="round" viewBox="0 0 24 24" id="github">
    <path d="M9 19c-5 1.5-5-2.5-7-3m14 6v-3.87a3.37 3.37 0 0 0-.94-2.61c3.14-.35 6.44-1.54 6.44-7A5.44 5.44 0 0 0 20 4.77 5.07 5.07 0 0 0 19.91 1S18.73.65 16 2.48a13.38 13.38 0 0 0-7 0C6.27.65 5.09 1 5.09 1A5.07 5.07 0 0 0 5 4.77a5.44 5.44 0 0 0-1.5 3.78c0 5.42 3.3 6.61 6.44 7A3.37 3.37 0 0 0 9 18.13V22"></path>
  </symbol>
</svg>