<svg width="0" height="0" class="hidden">

  <symbol xmlns="http://www.w3.org/2000/svg" viewBox="0 0 48 48" id="menu">
    <path d="M7.85 40.4q-.35-.35-.35-.775 0-.425.35-.775L27.75 19q-1.1-2.45-.55-4.85.55-2.4 2.7-4.6 1.95-1.95 5-2.675 3.05-.725 5.05 1.275t1.225 5.025Q40.4 16.2 38.4 18.25q-2 2.05-4.4 2.65-2.4.6-4.7-.4l-3.7 3.7 14.65 14.65q.3.35.3.775 0 .425-.3.775-.3.35-.775.35-.475 0-.775-.35L24.05 25.8 9.4 40.4q-.3.35-.775.35-.475 0-.775-.35Zm7.05-16.45-5.7-5.7Q7.1 16.2 6.75 13.5q-.35-2.7.95-5.15.35-.55.975-.6.625-.05 1.125.4L20.25 18.6Z"></path>
  </symbol>

  <symbol xmlns="http://www.w3.org/2000/svg" viewBox="0 0 48 48" id="info">
    <path d="M24.1 33.4q.5 0 .8-.3.3-.3.3-.8v-9.25q0-.4-.325-.725Q24.55 22 24.15 22q-.5 0-.825.325Q23 22.65 23 23.1v9.25q0 .45.35.75t.75.3ZM24 18.85q.55 0 .95-.35.4-.35.4-.95t-.4-.975q-.4-.375-.95-.375-.6 0-.975.375t-.375.975q0 .6.4.95t.95.35Zm0 24q-4 0-7.425-1.45t-5.975-4q-2.55-2.55-4-5.975Q5.15 28 5.15 24q0-3.95 1.45-7.4t4-6q2.55-2.55 5.975-4Q20 5.15 24 5.15q3.95 0 7.4 1.45t6 4q2.55 2.55 4 5.975Q42.85 20 42.85 24t-1.45 7.425q-1.45 3.425-4 5.975t-5.975 4Q28 42.85 24 42.85ZM24 24Zm0 16.65q6.85 0 11.75-4.875T40.65 24q0-6.85-4.9-11.75T24 7.35q-6.9 0-11.775 4.9T7.35 24q0 6.9 4.875 11.775T24 40.65Z"></path>
  </symbol>

  <symbol xmlns="http://www.w3.org/2000/svg" viewBox="0 0 48 48" id="basket">
    <path d="M10.45 40.85q-.65 0-1.2-.4-.55-.4-.7-1.05L3.3 20.75q-.2-.65.225-1.15.425-.5 1.125-.5h9.95l8.45-12.55q.2-.25.425-.375.225-.125.525-.125.25 0 .5.125t.4.325l8.45 12.6H43.4q.65 0 1.075.525.425.525.275 1.125L39.4 39.4q-.15.65-.75 1.05t-1.25.4Zm.1-2.2h26.9L42.3 21.3H5.7ZM24 32.15q.9 0 1.55-.625t.65-1.575q0-.9-.65-1.525Q24.9 27.8 24 27.8t-1.55.625q-.65.625-.65 1.525 0 .95.65 1.575t1.55.625ZM17.3 19.1h13.35L24 9.1Zm-6.75 19.55h26.9Z"></path>
  </symbol>
  
  <symbol xmlns="http://www.w3.org/2000/svg" fill="none" stroke="currentColor" stroke-width="1" stroke-linecap="round" stroke-linejoin="round" viewBox="0 0 24 24" id="github">
    <path d="M9 19c-5 1.5-5-2.5-7-3m14 6v-3.87a3.37 3.37 0 0 0-.94-2.61c3.14-.35 6.44-1.54 6.44-7A5.44 5.44 0 0 0 20 4.77 5.07 5.07 0 0 0 19.91 1S18.73.65 16 2.48a13.38 13.38 0 0 0-7 0C6.27.65 5.09 1 5.09 1A5.07 5.07 0 0 0 5 4.77a5.44 5.44 0 0 0-1.5 3.78c0 5.42 3.3 6.61 6.44 7A3.37 3.37 0 0 0 9 18.13V22"></path>
  </symbol>

  <symbol xmlns="http://www.w3.org/2000/svg" viewBox="0 0 48 48" id="addBox">
    <path d="M24 33.4q.5 0 .8-.3.3-.3.3-.8v-7.2h7.25q.45 0 .75-.325t.3-.775q0-.5-.3-.8-.3-.3-.75-.3H25.1v-7.25q0-.45-.325-.75T24 14.6q-.45 0-.775.3t-.325.75v7.25h-7.2q-.5 0-.8.325-.3.325-.3.775t.3.775q.3.325.8.325h7.2v7.2q0 .5.325.8.325.3.775.3ZM9.95 40.85q-1.15 0-1.975-.825-.825-.825-.825-1.975V9.95q0-1.15.825-1.975Q8.8 7.15 9.95 7.15h28.1q1.15 0 1.975.825.825.825.825 1.975v28.1q0 1.15-.825 1.975-.825.825-1.975.825Zm0-2.2h28.1q.25 0 .425-.175t.175-.425V9.95q0-.25-.175-.425t-.425-.175H9.95q-.25 0-.425.175t-.175.425v28.1q0 .25.175.425t.425.175Zm-.6 0V9.35 38.65Z"></path>
  </symbol>

  <symbol xmlns="http://www.w3.org/2000/svg" viewBox="0 0 48 48" id="remove">
    <path d="M11.7 25.1q-.45 0-.775-.325t-.325-.825q0-.45.325-.75t.775-.3h24.6q.45 0 .775.325T37.4 24q0 .45-.325.775t-.775.325Z"></path>
  </symbol>

</svg>